<svg xmlns="http://www.w3.org/2000/svg" xmlns:xlink="http://www.w3.org/1999/xlink" aria-hidden="true" role="img" class="iconify iconify--logos" width="31.88" height="32" preserveAspectRatio="xMidYMid meet" viewBox="0 0 256 257"><defs><linearGradient id="IconifyId1813088fe1fbc01fb466" x1="-.828%" x2="57.636%" y1="7.652%" y2="78.411%"><stop offset="0%" stop-color="#41D1FF"></stop><stop offset="100%" stop-color="#BD34FE"></stop></linearGradient><linearGradient id="IconifyId1813088fe1fbc01fb467" x1="43.376%" x2="50.316%" y1="2.242%" y2="89.03%"><stop offset="0%" stop-color="#FFEA83"></stop><stop offset="8.333%" stop-color="#FFDD35"></stop><stop offset="100%" stop-color="#FFA800"></stop></linearGradient></defs><path fill="url(#IconifyId1813088fe1fbc01fb466)" d="M255.153 37.938L134.897 252.976c-2.483 4.44-8.862 4.466-11.382.048L.875 37.958c-2.746-4.814 1.371-10.646 6.827-9.67l120.385 21.517a6.537 6.537 0 0 0 2.322-.004l117.867-21.483c5.438-.991 9.574 4.796 6.877 9.62Z"></path><path fill="url(#IconifyId1813088fe1fbc01fb467)" d="M185.432.063L96.44 17.501a3.268 3.268 0 0 0-2.634 3.014l-5.474 92.456a3.268 3.268 0 0 0 3.997 3.378l24.777-5.718c2.318-.535 4.413 1.507 3.936 3.838l-7.361 36.047c-.495 2.426 1.782 4.5 4.151 3.78l15.304-4.649c2.372-.72 4.652 1.36 4.15 3.788l-11.698 56.621c-.732 3.542 3.979 5.473 5.943 2.437l1.313-2.028l72.516-144.72c1.215-2.423-.88-5.186-3.54-4.672l-25.505 4.922c-2.396.462-4.435-1.77-3.759-4.114l16.646-57.705c.677-2.35-1.37-4.583-3.769-4.113Z"><symbol id="icon-file-openoffice" viewBox="0 0 32 32">
<path d="M21.569 14.74c-1.896-0.895-4.312-1.076-6.089 0.189 2.161-0.206 4.53 0.151 6.097 1.785 1.5-1.721 3.879-2.044 6.030-1.867-1.796-1.192-4.163-1.032-6.038-0.107v0zM20.801 18.93c-2.137-0.049-4.201 0.724-5.972 1.878-3.349-1.425-7.585-1.16-10.438 1.218 0.823-0.029 1.625-0.233 2.439-0.337 2.974-0.296 6.143 0.442 8.391 2.494 0.93-1.361 2.239-2.445 3.739-3.123 1.971-0.954 4.192-1.053 6.338-1.079-1.303-0.895-2.957-1.061-4.498-1.052z"></path>
<path d="M28.681 7.159c-0.694-0.947-1.662-2.053-2.724-3.116s-2.169-2.030-3.116-2.724c-1.612-1.182-2.393-1.319-2.841-1.319h-15.5c-1.378 0-2.5 1.121-2.5 2.5v27c0 1.378 1.121 2.5 2.5 2.5h23c1.378 0 2.5-1.122 2.5-2.5v-19.5c0-0.448-0.137-1.23-1.319-2.841v0zM24.543 5.457c0.959 0.959 1.712 1.825 2.268 2.543h-4.811v-4.811c0.718 0.556 1.584 1.309 2.543 2.268v0zM28 29.5c0 0.271-0.229 0.5-0.5 0.5h-23c-0.271 0-0.5-0.229-0.5-0.5v-27c0-0.271 0.229-0.5 0.5-0.5 0 0 15.499-0 15.5 0v7c0 0.552 0.448 1 1 1h7v19.5z"></path>
</symbol>
<symbol id="modal-social-insta" viewBox="0 0 32 32">
<path  d="M23.385 0h-14.769c-2.284 0.002-4.474 0.911-6.089 2.526s-2.524 3.805-2.526 6.089v14.769c0.002 2.284 0.911 4.474 2.526 6.089s3.805 2.524 6.089 2.526h14.769c2.284-0.003 4.474-0.911 6.089-2.526s2.524-3.805 2.526-6.089v-14.769c-0.003-2.284-0.911-4.474-2.526-6.089s-3.805-2.524-6.089-2.526zM16 23.385c-1.461 0-2.888-0.433-4.103-1.244s-2.161-1.965-2.72-3.314c-0.559-1.349-0.705-2.834-0.42-4.267s0.988-2.748 2.021-3.781c1.033-1.033 2.349-1.736 3.781-2.021s2.917-0.139 4.267 0.42c1.349 0.559 2.503 1.505 3.314 2.72s1.244 2.642 1.244 4.103c-0.002 1.958-0.781 3.835-2.165 5.22s-3.262 2.163-5.22 2.165zM25.231 8.615c-0.365 0-0.722-0.108-1.026-0.311s-0.54-0.491-0.68-0.829c-0.14-0.337-0.176-0.709-0.105-1.067s0.247-0.687 0.505-0.945c0.258-0.258 0.587-0.434 0.945-0.505s0.729-0.035 1.067 0.105c0.337 0.14 0.626 0.376 0.829 0.68s0.311 0.661 0.311 1.026c0 0.49-0.195 0.959-0.541 1.305s-0.816 0.541-1.305 0.541zM20.923 16c0 0.974-0.289 1.926-0.83 2.735s-1.31 1.441-2.209 1.813c-0.9 0.373-1.889 0.47-2.844 0.28s-1.832-0.659-2.521-1.347c-0.688-0.689-1.157-1.566-1.347-2.521s-0.092-1.945 0.28-2.844 1.004-1.668 1.813-2.209c0.81-0.541 1.761-0.83 2.735-0.83 1.306 0 2.558 0.519 3.481 1.442s1.442 2.175 1.442 3.481z"></path>
</symbol>
<symbol id="modal-social-youtube" viewBox="0 0 32 32">
<path d="M18.672 15.722l-3.743-1.747c-0.327-0.152-0.595 0.018-0.595 0.38v3.29c0 0.362 0.268 0.532 0.595 0.38l3.742-1.747c0.328-0.153 0.328-0.403 0.002-0.557zM16 0c-8.837 0-16 7.163-16 16s7.163 16 16 16c8.837 0 16-7.163 16-16s-7.163-16-16-16zM16 22.5c-8.19 0-8.333-0.738-8.333-6.5s0.143-6.5 8.333-6.5c8.19 0 8.333 0.738 8.333 6.5s-0.143 6.5-8.333 6.5z"></path>
</symbol>
<symbol id="modal-social-facebook" viewBox="0 0 32 32">
<path  d="M32 16.040c0-8.854-7.168-16.040-16-16.040s-16 7.186-16 16.040c0 7.763 5.504 14.228 12.8 15.719v-10.907h-3.2v-4.812h3.2v-4.010c0-3.096 2.512-5.614 5.6-5.614h4v4.812h-3.2c-0.88 0-1.6 0.722-1.6 1.604v3.208h4.8v4.812h-4.8v11.148c8.080-0.802 14.4-7.635 14.4-15.96z"></path>
</symbol>
</path></svg>